<?xml version="1.0" encoding="iso-8859-1"?>
<!-- Generator: Adobe Illustrator 19.0.0, SVG Export Plug-In . SVG Version: 6.00 Build 0)  -->
<svg version="1.1" id="Capa_1" xmlns="http://www.w3.org/2000/svg" xmlns:xlink="http://www.w3.org/1999/xlink" x="0px" y="0px"
	 viewBox="0 0 512 512" style="enable-background:new 0 0 512 512;" xml:space="preserve">
<g>
	<path style="fill:#2980BA;" d="M148.966,481.359c-7.339,0.116-14.575-1.725-20.966-5.333
		c-23.134-13.355-30.285-49.57-20.122-101.956c13.271-58.761,35.832-115.029,66.833-166.682
		c29.233-52.673,66.681-100.344,110.933-141.218C325.973,31.175,360.858,19.254,384,32.617
		c23.142,13.363,30.285,49.57,20.122,101.956c-13.271,58.761-35.832,115.029-66.833,166.682
		c-29.233,52.673-66.681,100.344-110.933,141.218C196.838,468.107,170.197,481.359,148.966,481.359z M362.667,44.256
		c-16.563,0-39.637,12.049-65.826,34.799c-42.828,39.628-79.066,85.83-107.349,136.866c-30.055,50.013-51.947,104.496-64.853,161.4
		c-8.533,44.032-4.198,74.624,11.904,83.925s44.766-2.236,78.635-31.659c42.822-39.63,79.054-85.831,107.332-136.866
		c30.051-50.015,51.943-104.497,64.853-161.399c8.533-44.032,4.198-74.624-11.947-83.925
		C371.517,45.244,367.119,44.16,362.667,44.256z"/>
	<path style="fill:#CC66A1;" d="M399.104,460.53c-3.567,6.417-8.781,11.767-15.104,15.497
		c-23.134,13.355-58.027,1.442-98.355-33.553c-44.252-40.874-81.701-88.546-110.933-141.218
		c-31.001-51.652-53.562-107.92-66.833-166.682C97.715,82.187,104.858,45.972,128,32.617s58.069-1.442,98.355,33.545
		c44.25,40.879,81.698,88.553,110.933,141.227c30.994,51.656,53.554,107.923,66.833,166.682
		C411.571,412.444,409.719,442.14,399.104,460.53z M127.411,56.92c-8.286,14.345-9.387,40.354-2.773,74.402
		c12.906,56.904,34.798,111.387,64.853,161.399c28.284,51.034,64.518,97.235,107.341,136.866
		c33.869,29.414,62.532,40.96,78.635,31.659c16.102-9.301,20.48-39.893,11.947-83.934c-12.908-56.9-34.8-111.38-64.853-161.391
		c-28.297-51.039-64.549-97.241-107.392-136.866c-33.869-29.414-62.532-40.96-78.635-31.659
		C132.703,49.707,129.555,52.994,127.411,56.92z M182.101,296.988v-0.077V296.988z"/>
	<path style="fill:#F0C419;" d="M506.138,233.492c3.772,6.298,5.795,13.489,5.862,20.83c0,26.709-27.785,51.004-78.234,68.403
		C376.242,340.612,316.233,349.208,256,348.188c-60.232,1.019-120.242-7.577-177.766-25.464C27.785,305.334,0,281.048,0,254.322
		s27.785-51.012,78.234-68.412c57.525-17.883,117.534-26.476,177.766-25.455c60.232-1.022,120.242,7.571,177.766,25.455
		C470.724,198.659,495.522,215.068,506.138,233.492z M20.753,266.985c8.26,14.345,30.251,28.297,63.044,39.603
		C139.529,323.867,197.66,332.149,256,331.122c58.34,1.03,116.47-7.249,172.203-24.525c42.411-14.626,66.731-33.681,66.731-52.275
		s-24.32-37.658-66.731-52.275C372.469,184.774,314.339,176.495,256,177.522c-58.339-1.022-116.468,7.257-172.203,24.525
		c-42.402,14.626-66.731,33.681-66.731,52.275C17.15,258.795,18.422,263.166,20.753,266.985z M256,339.655v-0.077V339.655z"/>
	<circle style="fill:#FF5364;" cx="110.933" cy="109.255" r="34.133"/>
	<circle style="fill:#E57E25;" cx="452.267" cy="203.122" r="34.133"/>
	<circle style="fill:#FF5364;" cx="307.2" cy="450.588" r="34.133"/>
	<circle style="fill:#285680;" cx="256" cy="254.322" r="42.667"/>
</g>
<g>
</g>
<g>
</g>
<g>
</g>
<g>
</g>
<g>
</g>
<g>
</g>
<g>
</g>
<g>
</g>
<g>
</g>
<g>
</g>
<g>
</g>
<g>
</g>
<g>
</g>
<g>
</g>
<g>
</g>
</svg>
