<?xml version="1.0" encoding="UTF-8"?>
<svg xmlns="http://www.w3.org/2000/svg" xmlns:xlink="http://www.w3.org/1999/xlink" width="512" height="512" viewBox="0 0 60 60" version="1.1"><!-- Generator: Sketch 51.3 (57544) - http://www.bohemiancoding.com/sketch --><title>018 - Mining</title><desc>Created with Sketch.</desc><defs/><g id="Page-1" stroke="none" stroke-width="1" fill="none" fill-rule="evenodd"><g id="018---Mining" fill-rule="nonzero"><path d="M36.12,28.75 L36,29 L25.05,32.65 C24.3570721,32.8792363 23.7127946,33.2352844 23.15,33.7 L13,42 L27.833,55 C28.853,55.66 36.517,54.223 37.667,53.833 L50.667,47.167 C51.867,46.767 54.267,44.867 54.667,43.667 L55,39 C55.86,36.41 53.732,36 51,36 L48.239,33.714 M41.75,34.75 L38.26,31.26 M44.14,36.7 L44.13,36.7" id="Shape" fill="#545C60"/><path d="M59,15.77 L59,20 L54.04,25.54 C52.97,26.3 51.6,27.23 50.38,27 C50.1767374,26.9666532 49.9806151,26.8990248 49.8,26.8 L41,19 L53.37,14.88 L56.37,13.88 C56.9783582,13.6780822 57.6466371,13.7799905 58.1671616,14.1540556 C58.687686,14.5281207 58.9973791,15.1290136 59,15.77 Z" id="Shape" fill="#545C60"/><path d="M42.794,34.552 L42.783,34.552 L42.794,34.552 Z M13.833,41.96 L24.682,33.005 L36.036,30.247 L40.047,33.009 L47.51,32.19 L50.68,34 C53.82,34 56.27,34.32 55.28,36.37 L55.15,37.59 L55,38.98 L54.99,39.08 L54.89,40.07 C54.43,41.02 51.68,42.52 50.3,42.84 L35.35,48.11 C34.03,48.42 25.22,49.56 24.05,49.04 L14.36,43.19 L13.833,41.96 Z" id="Shape" fill="#7F8E94"/><path d="M59,52 L59,59 L39,59 L42.4,54.19 C42.7915653,53.4184767 43.4184767,52.7915653 44.19,52.4 L50.42,49.29 C51.29,48.86 52.88,47.51 54.33,46.62 C55.46,45.92 56.5,45.5 57.04,46.04 L59,52 Z" id="Shape" fill="#545C60"/><path d="M56,16.77 L56,21 L51.04,26.54 C50.83,26.69 50.61,26.85 50.38,27 C50.1767374,26.9666532 49.9806151,26.8990248 49.8,26.8 L41,19 L53.37,14.88 C53.9783582,14.6780822 54.6466371,14.7799905 55.1671616,15.1540556 C55.687686,15.5281207 55.9973791,16.1290136 56,16.77 Z" id="Shape" fill="#7F8E94"/><path d="M56,50 L56,59 L39,59 L42.4,54.19 C42.7915653,53.4184767 43.4184767,52.7915653 44.19,52.4 L50.42,49.29 C51.29,48.86 52.88,47.51 54.33,46.62 L56,50 Z" id="Shape" fill="#7F8E94"/><path d="M31,59 L1,59 L1,58.43 C1.00043062,56.3613963 2.27737989,54.507632 4.21,53.77 L14,50 L31,59 Z" id="Shape" fill="#7F8E94"/><path d="M52.72,49.17 C52.6167367,49.2013026 52.5163649,49.2414513 52.42,49.29 L46.19,52.4 C45.4184767,52.7915653 44.7915653,53.4184767 44.4,54.19 L42,59 L39,59 L41.4,54.19 C41.7915653,53.4184767 42.4184767,52.7915653 43.19,52.4 L49.42,49.29 C50.4503217,48.7724495 51.6548092,48.7286499 52.72,49.17 Z" id="Shape" fill="#37474F"/><path d="M59,20 L59,52 L57.04,50.04 C56.7360443,49.7355548 56.3848415,49.4822836 56,49.29 L56,22.14 L59,20 Z" id="Shape" fill="#37474F"/><path d="M56,22.14 L56,49.29 C54.9770898,48.7712338 53.7780834,48.7273677 52.72,49.17 C51.6548092,48.7286499 50.4503217,48.7724495 49.42,49.29 L43.19,52.4 C42.4184767,52.7915653 41.7915653,53.4184767 41.4,54.19 L39,59 L27,59 L14,50 L13.26,44.11 L13,42 L28.39,51.96 C28.6025419,52.0962534 28.8267544,52.2133793 29.06,52.31 C29.9407742,52.6661345 30.9200764,52.6945201 31.82,52.39 L49.1,46.63 C50.2958938,46.2340834 51.2340834,45.2958938 51.63,44.1 L52.25,42.26 C52.6549337,41.0399407 52.4488197,39.6996115 51.6960257,38.657586 C50.9432316,37.6155605 49.7355017,36.9988322 48.45,37 L47.53,37 C47.6,36.92 47.67,36.85 47.74,36.78 C48.602296,35.910405 49.7135518,35.3303155 50.92,35.12 C50.9610375,35.1065116 50.988775,35.0681973 50.988775,35.025 C50.988775,34.9818027 50.9610375,34.9434884 50.92,34.93 C49.7111924,34.7203128 48.5988152,34.1361398 47.74,33.26 C46.8674936,32.3984876 46.2839703,31.2873473 46.07,30.08 C46.0565116,30.0389625 46.0181973,30.011225 45.975,30.011225 C45.9318027,30.011225 45.8934884,30.0389625 45.88,30.08 C45.4835673,32.2858334 43.890813,34.0868412 41.75,34.75 L40.71,33.71 L36,29 C36.96,26.41 39.16,26.16 38.55,23.89 L40.36,20.29 L41,19 L49.8,23.8 C49.936121,23.8715802 50.0763672,23.9350249 50.22,23.99 C51.4863627,24.5041653 52.9277835,24.3343645 54.04,23.54 L56,22.14 Z" id="Shape" fill="#607D8B"/><path d="M34.74,8.79 L5.26,38.27 C4.28432562,39.2426272 2.70567438,39.2426272 1.73,38.27 C1.52277628,38.0646637 1.35350253,37.8242949 1.23,37.56 C0.794703483,36.6073988 0.99373215,35.4848771 1.73,34.74 L21.15,15.32 L29.1,7.37 L31.21,5.26 C31.6443352,4.81581973 32.2656874,4.60746209 32.88,4.7 C33.3213385,4.74141942 33.7330609,4.94018197 34.04,5.26 L34.74,5.96 C35.1190282,6.33328148 35.3324538,6.84302121 35.3324538,7.375 C35.3324538,7.90697879 35.1190282,8.41671852 34.74,8.79 Z" id="Shape" fill="#F57C00"/><path d="M32.74,7.36 L30.63,9.48 L22.68,17.42 L3.26,36.84 C2.72423407,37.3701943 1.9801047,37.634122 1.23,37.56 C0.794703483,36.6073988 0.99373215,35.4848771 1.73,34.74 L21.15,15.32 L29.1,7.37 L31.21,5.26 C31.6443352,4.81581973 32.2656874,4.60746209 32.88,4.7 C33.535068,5.48719836 33.4740829,6.64591484 32.74,7.36 Z" id="Shape" fill="#FF9801"/><path d="M38.26,31.26 C38.16,31.54 38.05,31.81 37.92,32.09 C37.4113977,30.9297789 36.8094194,29.8127747 36.12,28.75 C35.97,28.51 35.81,28.26 35.65,28.02 C33.1722583,24.4358966 30.3885061,21.0733113 27.33,17.97 L26.89,12.31 L30.45,13.22 L31.74,13.55 C31.74,13.55 36.98,17.92 38.55,23.89 C39.2343776,26.3156105 39.1328558,28.8956646 38.26,31.26 Z" id="Shape" fill="#707070"/><path d="M35.65,28.02 C33.1722583,24.4358966 30.3885061,21.0733113 27.33,17.97 L26.89,12.31 L30.45,13.22 C32.814919,15.6635827 34.5632431,18.6357337 35.55,21.89 C36.1099651,23.8907293 36.1444079,26.0020705 35.65,28.02 Z" id="Shape" fill="#9E9E9E"/><path d="M50.92,35.12 C49.7786986,35.3212847 48.7216326,35.8532949 47.88,36.65 C47.8286711,36.6880247 47.7817175,36.7316245 47.74,36.78 C47.67,36.85 47.6,36.92 47.53,37 C47.2783036,37.277805 47.0539354,37.5791951 46.86,37.9 C46.465753,38.5290303 46.1974505,39.2286546 46.07,39.96 C46.0565116,40.0010375 46.0181973,40.028775 45.975,40.028775 C45.9318027,40.028775 45.8934884,40.0010375 45.88,39.96 C45.8233218,39.6077378 45.7294642,39.2624757 45.6,38.93 C45.2992873,38.1227712 44.82867,37.3895631 44.22,36.78 L44.14,36.7 L44.13,36.7 C43.5394449,36.1303713 42.8383317,35.6879212 42.07,35.4 C41.7360273,35.27513 41.3912272,35.1813979 41.04,35.12 C40.9989625,35.1065116 40.971225,35.0681973 40.971225,35.025 C40.971225,34.9818027 40.9989625,34.9434884 41.04,34.93 C41.2813111,34.8900906 41.5188215,34.8298767 41.75,34.75 C42.2239246,34.6044135 42.6775261,34.3994528 43.1,34.14 C43.5656638,33.864901 43.9870872,33.5210194 44.35,33.12 C45.1467051,32.2783674 45.6787153,31.2213014 45.88,30.08 C45.8934884,30.0389625 45.9318027,30.011225 45.975,30.011225 C46.0181973,30.011225 46.0565116,30.0389625 46.07,30.08 C46.2839703,31.2873473 46.8674936,32.3984876 47.74,33.26 C48.5988152,34.1361398 49.7111924,34.7203128 50.92,34.93 C50.9610375,34.9434884 50.988775,34.9818027 50.988775,35.025 C50.988775,35.0681973 50.9610375,35.1065116 50.92,35.12 Z" id="Shape" fill="#FDD834"/><path d="M48.92,37.12 C48.1900145,37.2467629 47.4908756,37.5114854 46.86,37.9 C46.4510328,38.1449031 46.0747088,38.4405863 45.74,38.78 C45.6906931,38.8274689 45.6439597,38.8775404 45.6,38.93 C45.2992873,38.1227712 44.82867,37.3895631 44.22,36.78 L44.14,36.7 L44.13,36.7 C43.5394449,36.1303713 42.8383317,35.6879212 42.07,35.4 C42.472024,35.0316083 42.8189158,34.6072552 43.1,34.14 C43.4885146,33.5091244 43.7532371,32.8099855 43.88,32.08 C43.8934884,32.0389625 43.9318027,32.011225 43.975,32.011225 C44.0181973,32.011225 44.0565116,32.0389625 44.07,32.08 C44.1313975,32.4344856 44.225122,32.7826053 44.35,33.12 C44.6558333,33.9240873 45.1297166,34.653663 45.74,35.26 C46.5979133,36.1373517 47.7107067,36.7217431 48.92,36.93 C48.9610375,36.9434884 48.988775,36.9818027 48.988775,37.025 C48.988775,37.0681973 48.9610375,37.1065116 48.92,37.12 Z" id="Shape" fill="#FFEB3A"/><path d="M39.92,41.12 C39.1826695,41.248418 38.4766734,41.5165608 37.84,41.91 C37.6648692,42.0140824 37.4977396,42.1310731 37.34,42.26 C37.1261467,42.4166719 36.9254767,42.5905859 36.74,42.78 C35.8713051,43.6443307 35.2884541,44.7541907 35.07,45.96 C35.0565116,46.0010375 35.0181973,46.028775 34.975,46.028775 C34.9318027,46.028775 34.8934884,46.0010375 34.88,45.96 C34.7796323,45.3671218 34.5873165,44.7935483 34.31,44.26 C34.0227535,43.7149146 33.6553282,43.2160252 33.22,42.78 C32.3733715,41.9309518 31.2888471,41.3590482 30.11,41.14 C30.0882217,41.1287628 30.0644277,41.1219645 30.04,41.12 C29.9989625,41.1065116 29.971225,41.0681973 29.971225,41.025 C29.971225,40.9818027 29.9989625,40.9434884 30.04,40.93 C30.2390372,40.8939584 30.4359891,40.847224 30.63,40.79 C32.827532,40.1566768 34.4750529,38.330836 34.88,36.08 C34.8934884,36.0389625 34.9318027,36.011225 34.975,36.011225 C35.0181973,36.011225 35.0565116,36.0389625 35.07,36.08 C35.2839703,37.2873473 35.8674936,38.3984876 36.74,39.26 C37.5988152,40.1361398 38.7111924,40.7203128 39.92,40.93 C39.9610375,40.9434884 39.988775,40.9818027 39.988775,41.025 C39.988775,41.0681973 39.9610375,41.1065116 39.92,41.12 Z" id="Shape" fill="#FEC108"/><path d="M37.92,42.12 C37.7242553,42.1560408 37.5306319,42.2027775 37.34,42.26 C36.3554199,42.530811 35.4589846,43.0548809 34.74,43.78 C34.5863037,43.930405 34.4426607,44.0907507 34.31,44.26 C34.0227535,43.7149146 33.6553282,43.2160252 33.22,42.78 C32.3733715,41.9309518 31.2888471,41.3590482 30.11,41.14 C30.2894025,41.0326139 30.4629799,40.9157829 30.63,40.79 C31.8217509,40.451561 32.8777469,39.7487292 33.65,38.78 C33.9304045,39.3293429 34.2985761,39.8292456 34.74,40.26 C35.5791863,41.1155446 36.6616407,41.6916897 37.84,41.91 C37.8652794,41.9213298 37.892363,41.9281007 37.92,41.93 C37.9610375,41.9434884 37.988775,41.9818027 37.988775,42.025 C37.988775,42.0681973 37.9610375,42.1065116 37.92,42.12 Z" id="Shape" fill="#FFDC00"/><path d="M7.908,2.076 C14.088,4.724 22.033,12.67 22.033,12.67 L26.889,13.111 L26.447,8.256 C26.447,8.256 17.619,-2.338 7.908,2.076 Z" id="Shape" fill="#9E9E9E"/><path d="M32.8,12.49 L26.27,19.03 C25.8799625,19.4177236 25.2500375,19.4177236 24.86,19.03 L24.03,18.2 L20.97,15.14 C20.5822764,14.7499625 20.5822764,14.1200375 20.97,13.73 L27.51,7.2 C27.5761951,7.12600298 27.6582317,7.06789369 27.75,7.03 C28.1337269,6.81641886 28.6129236,6.88604573 28.92,7.2 L32.8,11.08 C33.1877236,11.4700375 33.1877236,12.0999625 32.8,12.49 Z" id="Shape" fill="#37474F"/><path d="M30.8,11.49 L24.27,18.03 C24.2010885,18.1008892 24.1197378,18.1585127 24.03,18.2 L20.97,15.14 C20.5822764,14.7499625 20.5822764,14.1200375 20.97,13.73 L27.51,7.2 C27.5761951,7.12600298 27.6582317,7.06789369 27.75,7.03 L30.8,10.08 C31.1877236,10.4700375 31.1877236,11.0999625 30.8,11.49 Z" id="Shape" fill="#607D8B"/><path d="M44.14,37.7 L44.13,37.7 C43.5786982,37.6972435 43.1336248,37.2488195 43.1350031,36.6975125 C43.1363814,36.1462055 43.5836913,35.7000125 44.135,35.7000125 C44.6863087,35.7000125 45.1336186,36.1462055 45.1349969,36.6975125 C45.1363752,37.2488195 44.6913018,37.6972435 44.14,37.7 Z" id="Shape" fill="#000000"/><path d="M30.546,53.6 C29.5875867,53.599957 28.649737,53.3220756 27.846,52.8 L12.456,42.839 C12.142266,42.6512262 11.9560248,42.3071965 11.9703218,41.9418425 C11.9846188,41.5764884 12.1971745,41.2480644 12.5246226,41.0853814 C12.8520707,40.9226984 13.2422006,40.9516956 13.542,41.161 L28.932,51.121 C29.6926231,51.6163539 30.6385669,51.7350577 31.498,51.443 L48.782,45.681 C49.6815622,45.3860431 50.3870431,44.6805622 50.682,43.781 L51.3,41.94 C51.6017106,41.0255829 51.4461566,40.0219165 50.881806,39.2417266 C50.3174554,38.4615367 49.4129059,37.9996564 48.45,38 L47.53,38 C46.9777153,38 46.53,37.5522847 46.53,37 C46.53,36.4477153 46.9777153,36 47.53,36 L48.45,36 C50.0568771,35.9985402 51.5665395,36.7694507 52.5075321,38.0719825 C53.4485247,39.3745144 53.7061672,41.0499259 53.2,42.575 L52.578,44.419 C52.086376,45.914812 50.9129675,47.0878493 49.417,47.579 L32.138,53.339 C31.6250933,53.5121383 31.087341,53.6003 30.546,53.6 Z" id="Shape" fill="#000000"/><path d="M41.75,35.75 C41.4848052,35.7499434 41.2304927,35.6445494 41.043,35.457 L37.553,31.967 C37.2930434,31.7159255 37.1887874,31.3441221 37.2803028,30.9944927 C37.3718183,30.6448632 37.6448632,30.3718183 37.9944927,30.2803028 C38.3441221,30.1887874 38.7159255,30.2930434 38.967,30.553 L42.457,34.043 C42.7429079,34.3289943 42.8284219,34.7590366 42.673678,35.1326546 C42.5189341,35.5062725 42.1543959,35.7499137 41.75,35.75 Z" id="Shape" fill="#000000"/><path d="M14,51 C13.496152,50.9993539 13.0714768,50.6239598 13.009,50.124 L12.009,42.124 C11.9656257,41.7821861 12.1012748,41.4421187 12.368,41.224 L22.519,32.924 C23.1757358,32.3815494 23.9279491,31.9664416 24.737,31.7 L35.684,28.051 C36.2086705,27.876478 36.775478,28.1603295 36.95,28.685 C37.1245219,29.2096705 36.8406705,29.776478 36.316,29.951 L25.366,33.6 C24.7892651,33.7905517 24.2531066,34.086948 23.785,34.474 L14.061,42.425 L14.992,49.877 C15.060322,50.4248221 14.6717838,50.9243712 14.124,50.993 C14.0828819,50.9982376 14.0414463,51.0005767 14,51 Z" id="Shape" fill="#000000"/><path d="M36,30 C35.6564852,29.9995213 35.33726,29.8227582 35.1545592,29.5318578 C34.9718583,29.2409574 34.9512576,28.8766423 35.1,28.567 L35.22,28.317 C35.3632048,27.9766691 35.6822926,27.7429427 36.0499677,27.709063 C36.4176427,27.6751832 36.7740687,27.8466637 36.9770543,28.1550946 C37.1800398,28.4635255 37.1965507,28.8587121 37.02,29.183 L36.9,29.433 C36.733738,29.7791154 36.3839774,29.9994646 36,30 Z" id="Shape" fill="#000000"/><path d="M38.549,24.89 C38.2022719,24.8899884 37.8802939,24.7103705 37.6981428,24.4153427 C37.5159917,24.120315 37.4996658,23.7519866 37.655,23.442 L40.105,18.552 C40.3535281,18.0577051 40.9557051,17.8584719 41.45,18.107 C41.9442949,18.3555281 42.1435281,18.9577051 41.895,19.452 L39.444,24.342 C39.2731832,24.6791097 38.9269154,24.8911261 38.549,24.89 Z" id="Shape" fill="#000000"/><path d="M42,60 C41.6535599,59.999815 41.3318963,59.8203322 41.1498055,59.5256057 C40.9677146,59.2308792 40.9511412,58.8629025 41.106,58.553 L43.506,53.745 C43.9919872,52.7789682 44.7759682,51.9949872 45.742,51.509 L51.974,48.4 C53.8987336,47.434851 56.2254158,47.8125539 57.746,49.337 L59.707,51.298 C60.0859722,51.6903789 60.0805524,52.3140848 59.6948186,52.6998186 C59.3090848,53.0855524 58.6853789,53.0909722 58.293,52.712 L56.332,50.751 C55.4187485,49.837428 54.0232411,49.6110206 52.868,50.189 L46.64,53.3 C46.0610892,53.5912681 45.5912681,54.0610892 45.3,54.64 L42.9,59.447 C42.7297741,59.7876694 42.3808256,60.0020788 42,60 Z" id="Shape" fill="#000000"/><path d="M27,60 L1,60 C0.44771525,60 6.76353751e-17,59.5522847 0,59 L0,58.434 C0.0101522449,55.9545866 1.53551116,53.7335751 3.846,52.834 L13.646,49.066 C13.9549941,48.948984 14.301718,48.99083 14.574,49.178 L27.312,58 L58,58 L58,21.943 L54.621,24.357 C53.0591432,25.4632254 51.0049497,25.5876397 49.321,24.678 L40.521,19.878 C40.1713666,19.687465 39.9680873,19.3076607 40.0034712,18.9110563 C40.0388552,18.5144519 40.3061591,18.1766317 40.684,18.051 L56.051,12.929 C56.9658753,12.6239284 57.9716307,12.7772787 58.754018,13.3411364 C59.5364054,13.9049942 60.0000179,14.8106009 60,15.775 L60,59 C60,59.5522847 59.5522847,60 59,60 L27,60 Z M2.024,58 L23.8,58 L13.866,51.123 L4.564,54.7 C3.17028678,55.2430669 2.19227268,56.5137152 2.024,58 Z M43.5,19.222 L50.282,22.922 C51.2927432,23.4678921 52.5256696,23.393087 53.463,22.729 L58,19.485 L58,15.775 C58.0000774,15.4535564 57.8456288,15.1516717 57.5849053,14.9636576 C57.3241819,14.7756435 56.9889726,14.7244238 56.684,14.826 L43.5,19.222 Z" id="Shape" fill="#000000"/><path d="M3.494,40 C2.08217378,39.9960835 0.810940131,39.1443024 0.270396664,37.8400473 C-0.270146803,36.5357922 0.0258549439,35.0344764 1.021,34.033 L20.443,14.611 C20.8353789,14.2320278 21.4590848,14.2374476 21.8448186,14.6231814 C22.2305524,15.0089152 22.2359722,15.6326211 21.857,16.025 L2.436,35.447 C1.85308794,36.0322888 1.85308794,36.9787112 2.436,37.564 C3.0296029,38.1264221 3.9593971,38.1264221 4.553,37.564 L23.975,18.143 C24.3673789,17.7640278 24.9910848,17.7694476 25.3768186,18.1551814 C25.7625524,18.5409152 25.7679722,19.1646211 25.389,19.557 L5.967,38.979 C5.31190677,39.6356531 4.42153966,40.003249 3.494,40 Z" id="Shape" fill="#000000"/><path d="M25.564,20.317 C25.0335571,20.3181452 24.5245866,20.107574 24.15,19.732 L20.268,15.85 C19.892752,15.474904 19.6819271,14.9660734 19.6819271,14.4355 C19.6819271,13.9049266 19.892752,13.396096 20.268,13.021 L26.8,6.49 C27.5809997,5.70923612 28.8470003,5.70923612 29.628,6.49 L33.511,10.373 C34.2917639,11.1539997 34.2917639,12.4200003 33.511,13.201 L26.98,19.732 C26.6048617,20.1079726 26.0951136,20.3185677 25.564,20.317 Z M28.213,7.9 L21.682,14.432 L25.565,18.315 L32.1,11.787 L28.213,7.9 Z" id="Shape" fill="#000000"/><path d="M32.627,11.9 C32.3616514,11.9007185 32.1070531,11.7952061 31.92,11.607 L28.389,8.08 C27.9986181,7.68950015 27.9986181,7.05649985 28.389,6.666 L30.506,4.549 C31.693189,3.41540795 33.561811,3.41540795 34.749,4.549 L35.449,5.249 C36.011719,5.81162374 36.3278593,6.57476248 36.3278593,7.3705 C36.3278593,8.16623752 36.011719,8.92937626 35.449,9.492 L33.332,11.609 C33.1451061,11.7959794 32.8913674,11.9007141 32.627,11.9 Z M30.51,7.373 L32.627,9.49 L34.037,8.08 C34.4273819,7.68950015 34.4273819,7.05649985 34.037,6.666 L33.337,5.966 C32.941519,5.58783749 32.318481,5.58783749 31.923,5.966 L30.51,7.373 Z" id="Shape" fill="#000000"/><path d="M22.033,13.67 C21.6286041,13.6699137 21.2640659,13.4262725 21.109322,13.0526546 C20.9545781,12.6790366 21.0400921,12.2489943 21.326,11.963 L25.74,7.549 C26.1323789,7.17002779 26.7560848,7.17544763 27.1418186,7.56118142 C27.5275524,7.94691522 27.5329722,8.57062111 27.154,8.963 L22.74,13.377 C22.5525073,13.5645494 22.2981948,13.6699434 22.033,13.67 Z" id="Shape" fill="#000000"/><path d="M37.924,33.092 L37.913,33.092 C37.517047,33.08759 37.1609906,32.8499576 37.005,32.486 C34.462,26.552 26.705,18.752 26.623,18.674 C26.2326181,18.2835001 26.2326181,17.6504999 26.623,17.26 L31.037,12.846 C31.4028416,12.4798894 31.9875867,12.4534284 32.385,12.785 C34.318368,14.4870601 35.9888442,16.4662222 37.342,18.658 C40.267,23.43 40.783,28.219 38.834,32.505 C38.6720223,32.8621871 38.3161981,33.0917132 37.924,33.092 Z M28.735,17.976 C32.1521586,21.474267 35.1727785,25.3389971 37.742,29.5 C39.214,22.817 33.734,16.824 31.774,14.934 L28.735,17.976 Z" id="Shape" fill="#000000"/><path d="M22.033,13.67 C21.7678052,13.6699434 21.5134927,13.5645494 21.326,13.377 C21.248,13.3 13.443,5.536 7.515,3 C7.15114907,2.84406217 6.9135337,2.48817007 6.90898888,2.09233747 C6.90444405,1.69650487 7.13382538,1.33525086 7.494,1.171 C11.781,-0.782 16.57,-0.267 21.342,2.658 C23.5338973,4.01179871 25.513346,5.68256938 27.216,7.616 C27.5466902,8.01350299 27.5198073,8.59755555 27.154,8.963 L22.74,13.377 C22.5525073,13.5645494 22.2981948,13.6699434 22.033,13.67 Z M10.5,2.258 C14.6614219,4.82706029 18.5265005,7.84769048 22.025,11.265 L25.063,8.226 C23.17,6.269 17.164,0.8 10.5,2.258 Z" id="Shape" fill="#000000"/><path d="M45.978,41.046 C45.4442063,41.0434947 44.9892548,40.6581141 44.899,40.132 C44.5207402,38.081062 42.9144985,36.4772081 40.863,36.102 C40.3382951,36.0125237 39.954139,35.5583827 39.9529046,35.0261048 C39.9516701,34.4938269 40.3337157,34.037909 40.858,33.946 C42.915583,33.5746284 44.5265914,31.9652143 44.9,29.908 C44.9924247,29.3864814 45.4433772,29.0048738 45.973,29 L45.978,29 C46.5085042,29.0027781 46.9614443,29.3838029 47.055,29.906 C47.429789,31.9599483 49.035611,33.5681587 51.089,33.946 C51.6134883,34.0366999 51.9965811,34.4917271 51.9965811,35.024 C51.9965811,35.5562729 51.6134883,36.0113001 51.089,36.102 C49.0360601,36.4783103 47.4293276,38.0842468 47.052,40.137 C46.9621731,40.6605666 46.5092124,41.0439383 45.978,41.046 Z M45.088,39.781 L45.088,39.791 L45.088,39.781 Z M46.867,39.781 L46.867,39.791 L46.867,39.781 Z M43.584,35.026 C44.0742523,35.3226287 44.5260033,35.6786555 44.929,36.086 C45.3325067,36.4850755 45.6851765,36.9324625 45.979,37.418 C46.5747381,36.4442566 47.3927558,35.6255534 48.366,35.029 C47.391079,34.4310778 46.5716993,33.6106699 45.975,32.635 C45.3829022,33.6121619 44.5623992,34.430949 43.584,35.021 L43.584,35.026 Z M46.87,30.26 L46.87,30.272 L46.87,30.26 Z" id="Shape" fill="#000000"/><path d="M34.978,47.046 C34.4442063,47.0434947 33.9892548,46.6581141 33.899,46.132 C33.5207402,44.081062 31.9144985,42.4772081 29.863,42.102 C29.3385117,42.0113001 28.9554189,41.5562729 28.9554189,41.024 C28.9554189,40.4917271 29.3385117,40.0366999 29.863,39.946 C31.9186435,39.5727535 33.5272626,37.9637359 33.9,35.908 C33.9924247,35.3864814 34.4433772,35.0048738 34.973,35 L34.978,35 C35.5085042,35.0027781 35.9614443,35.3838029 36.055,35.906 C36.429789,37.9599483 38.035611,39.5681587 40.089,39.946 C40.6134883,40.0366999 40.9965811,40.4917271 40.9965811,41.024 C40.9965811,41.5562729 40.6134883,42.0113001 40.089,42.102 C38.0360601,42.4783103 36.4293276,44.0842468 36.052,46.137 C35.9621731,46.6605666 35.5092124,47.0439383 34.978,47.046 Z M34.088,45.781 L34.088,45.791 L34.088,45.781 Z M35.867,45.781 L35.867,45.791 L35.867,45.781 Z M32.584,41.026 C33.0742523,41.3226287 33.5260033,41.6786555 33.929,42.086 C34.3325067,42.4850755 34.6851765,42.9324625 34.979,43.418 C35.5747381,42.4442566 36.3927558,41.6255534 37.366,41.029 C36.391079,40.4310778 35.5716993,39.6106699 34.975,38.635 C34.3829022,39.6121619 33.5623992,40.430949 32.584,41.021 L32.584,41.026 Z M35.87,36.26 L35.87,36.272 L35.87,36.26 Z" id="Shape" fill="#000000"/></g></g></svg>
