<?xml version="1.0" encoding="iso-8859-1"?>
<!-- Generator: Adobe Illustrator 21.0.0, SVG Export Plug-In . SVG Version: 6.00 Build 0)  -->
<svg version="1.1" id="Capa_1" xmlns="http://www.w3.org/2000/svg" xmlns:xlink="http://www.w3.org/1999/xlink" x="0px" y="0px"
	 viewBox="0 0 512.069 512.069" style="enable-background:new 0 0 512.069 512.069;" xml:space="preserve">
<g transform="translate(0 -1)">
	<g transform="translate(0 2)">
		<path style="fill:#0377BC;" d="M426.671,317.968l-25.6,5.376l-33.365-0.171l-282.368-1.365
			c-39.99-6.925-70.812-39.08-76.039-79.327s16.36-79.209,53.255-96.118c14.756-8.387,31.749-11.994,48.64-10.325
			C115.04,70.346,165.267,16.78,230.575,8.72c5.6-0.757,11.245-1.128,16.896-1.109c59.37-0.009,111.94,38.35,130.048,94.891
			c2.219-0.341,4.437-0.512,6.656-0.683c57.623-5.028,109.241,35.572,117.931,92.757
			C510.889,248.693,478.842,301.115,426.671,317.968z"/>
		<path style="fill:#02A9F4;" d="M392.111,318.395l-24.841,5.12l-282.368-2.133c-39.986-7.025-70.735-39.274-75.85-79.549
			s16.599-79.186,53.561-95.982c14.766-8.357,31.758-11.934,48.64-10.24C115.316,69.949,165.695,16.558,231.01,8.694
			c52.614,6.832,96.506,43.527,112.555,94.097c2.219-0.333,4.437-0.495,6.656-0.666c9.146-0.654,18.337-0.227,27.383,1.271
			c46.844,7.749,83.329,44.851,90.291,91.819C476.522,249.357,444.327,301.687,392.111,318.395z"/>
		<g>
			<path style="fill:#607D8B;" d="M221.871,212.411v170.667c0,14.138-11.462,25.6-25.6,25.6h-85.589
				c-14.038-0.14-25.345-11.561-25.344-25.6V212.411c0-14.138,11.462-25.6,25.6-25.6h85.333
				C210.41,186.811,221.871,198.272,221.871,212.411z"/>
			<path style="fill:#607D8B;" d="M315.738,186.811h85.333c14.138,0,25.6,11.462,25.6,25.6v170.667c0,14.138-11.462,25.6-25.6,25.6
				h-85.333c-14.138,0-25.6-11.462-25.6-25.6V212.411C290.138,198.272,301.599,186.811,315.738,186.811z"/>
		</g>
		<g>
			<path style="fill:#CFD8DC;" d="M196.271,212.411v170.667c0,14.138-11.462,25.6-25.6,25.6h-59.989
				c-14.038-0.14-25.345-11.561-25.344-25.6V212.411c0-14.138,11.462-25.6,25.6-25.6h59.733c6.79,0,13.301,2.697,18.102,7.498
				C193.574,199.11,196.271,205.621,196.271,212.411z"/>
			<path style="fill:#CFD8DC;" d="M401.071,212.411v170.667c0,14.138-11.462,25.6-25.6,25.6h-59.733
				c-14.138,0-25.6-11.462-25.6-25.6V212.411c0-14.138,11.462-25.6,25.6-25.6h59.989
				C389.765,186.951,401.072,198.371,401.071,212.411z"/>
		</g>
		<g>
			<circle style="fill:#FFEB3A;" cx="153.604" cy="476.944" r="25.6"/>
			<circle style="fill:#FFEB3A;" cx="358.404" cy="476.944" r="25.6"/>
		</g>
		<g>
			<circle style="fill:#E91E63;" cx="153.604" cy="348.944" r="25.6"/>
			<circle style="fill:#E91E63;" cx="358.404" cy="348.944" r="25.6"/>
		</g>
	</g>
	<g>
		<path d="M503.471,470.411h-25.6c-4.713,0-8.533,3.82-8.533,8.533s3.82,8.533,8.533,8.533h25.6c4.713,0,8.533-3.821,8.533-8.533
			S508.184,470.411,503.471,470.411z"/>
		<path d="M119.471,231.477h68.267c4.713,0,8.533-3.821,8.533-8.533c0-4.713-3.821-8.533-8.533-8.533h-68.267
			c-4.713,0-8.533,3.821-8.533,8.533C110.938,227.657,114.758,231.477,119.471,231.477z"/>
		<path d="M119.471,265.611h68.267c4.713,0,8.533-3.82,8.533-8.533s-3.821-8.533-8.533-8.533h-68.267
			c-4.713,0-8.533,3.821-8.533,8.533S114.758,265.611,119.471,265.611z"/>
		<path d="M187.738,299.744c4.713,0,8.533-3.82,8.533-8.533s-3.821-8.533-8.533-8.533h-68.267c-4.713,0-8.533,3.82-8.533,8.533
			s3.821,8.533,8.533,8.533H187.738z"/>
		<path d="M187.738,350.944c0-18.851-15.282-34.133-34.133-34.133s-34.133,15.282-34.133,34.133s15.282,34.133,34.133,34.133
			S187.738,369.795,187.738,350.944z M136.538,350.944c0-9.426,7.641-17.067,17.067-17.067c9.426,0,17.067,7.641,17.067,17.067
			s-7.641,17.067-17.067,17.067C144.179,368.011,136.538,360.37,136.538,350.944z"/>
		<path d="M392.538,214.411h-68.267c-4.713,0-8.533,3.821-8.533,8.533c0,4.713,3.821,8.533,8.533,8.533h68.267
			c4.713,0,8.533-3.821,8.533-8.533C401.071,218.231,397.251,214.411,392.538,214.411z"/>
		<path d="M392.538,248.544h-68.267c-4.713,0-8.533,3.821-8.533,8.533s3.821,8.533,8.533,8.533h68.267
			c4.713,0,8.533-3.82,8.533-8.533S397.251,248.544,392.538,248.544z"/>
		<path d="M392.538,282.677h-68.267c-4.713,0-8.533,3.82-8.533,8.533s3.821,8.533,8.533,8.533h68.267
			c4.713,0,8.533-3.82,8.533-8.533S397.251,282.677,392.538,282.677z"/>
		<path d="M358.404,316.811c-18.851,0-34.133,15.282-34.133,34.133s15.282,34.133,34.133,34.133
			c18.851,0,34.133-15.282,34.133-34.133S377.256,316.811,358.404,316.811z M358.404,368.011c-9.426,0-17.067-7.641-17.067-17.067
			s7.641-17.067,17.067-17.067s17.067,7.641,17.067,17.067S367.83,368.011,358.404,368.011z"/>
		<path d="M120.683,470.411H8.538c-4.713,0-8.533,3.82-8.533,8.533s3.821,8.533,8.533,8.533h112.145
			c3.832,15.055,17.387,25.592,32.922,25.592s29.09-10.538,32.922-25.592h138.957c3.832,15.055,17.387,25.592,32.922,25.592
			s29.09-10.538,32.922-25.592h52.412c4.713,0,8.533-3.821,8.533-8.533s-3.82-8.533-8.533-8.533h-52.412
			c-3.122-11.941-12.447-21.266-24.388-24.388v-26.812h34.133c18.851,0,34.133-15.282,34.133-34.133V325.89
			c55.436-21.146,86.935-79.79,73.952-137.684S442.65,90.734,383.492,95.285h-0.128C359.919,32.556,296.58-5.973,230.095,2.052
			S111.257,62.57,103.411,129.077c-15.597,0.214-30.909,4.202-44.629,11.622c-36.046,17.186-58.94,53.627-58.778,93.559
			c1.393,45.593,32.663,84.817,76.8,96.333v54.485c0,18.851,15.282,34.133,34.133,34.133h34.133v26.812
			C133.13,449.145,123.805,458.47,120.683,470.411z M153.604,496.011c-9.426,0-17.067-7.641-17.067-17.067
			s7.641-17.067,17.067-17.067c9.426,0,17.067,7.641,17.067,17.067S163.03,496.011,153.604,496.011z M375.471,478.944
			c0,9.426-7.641,17.067-17.067,17.067s-17.067-7.641-17.067-17.067s7.641-17.067,17.067-17.067S375.471,469.518,375.471,478.944z
			 M418.138,385.077c0,9.426-7.641,17.067-17.067,17.067h-85.333c-9.426,0-17.067-7.641-17.067-17.067V214.411
			c0-9.426,7.641-17.067,17.067-17.067h85.333c9.426,0,17.067,7.641,17.067,17.067V385.077z M17.071,233.798
			c0-33.295,19.211-63.6,49.323-77.807c13.32-7.715,28.737-11.024,44.049-9.455c2.298,0.202,4.58-0.535,6.326-2.042
			s2.807-3.659,2.941-5.962c3.648-61.53,50.631-111.721,111.786-119.421s119.113,29.279,137.899,87.984
			c1.26,3.954,5.182,6.428,9.293,5.862c2.031-0.284,4.068-0.503,6.11-0.657c53.157-4.612,100.773,32.813,108.851,85.555
			c7.413,45.516-16.514,90.372-58.445,109.568v-93.013c0-18.851-15.282-34.133-34.133-34.133h-85.333
			c-18.851,0-34.133,15.282-34.133,34.133v102.4h-51.2v-102.4c0-18.851-15.282-34.133-34.133-34.133h-85.333
			c-18.851,0-34.133,15.282-34.133,34.133v98.423C42.135,301.839,18.187,270.152,17.071,233.798z M93.871,385.077V214.411
			c0-9.426,7.641-17.067,17.067-17.067h85.333c9.426,0,17.067,7.641,17.067,17.067v170.667c0,9.426-7.641,17.067-17.067,17.067
			h-85.333C101.512,402.144,93.871,394.503,93.871,385.077z M196.271,419.211c18.851,0,34.133-15.282,34.133-34.133v-51.2h51.2v51.2
			c0,18.851,15.282,34.133,34.133,34.133h34.133v26.812c-11.941,3.122-21.266,12.447-24.388,24.388H186.526
			c-3.122-11.941-12.447-21.266-24.388-24.388v-26.812H196.271z"/>
	</g>
</g>
<g>
</g>
<g>
</g>
<g>
</g>
<g>
</g>
<g>
</g>
<g>
</g>
<g>
</g>
<g>
</g>
<g>
</g>
<g>
</g>
<g>
</g>
<g>
</g>
<g>
</g>
<g>
</g>
<g>
</g>
</svg>
