<?xml version="1.0" encoding="iso-8859-1"?>
<!-- Generator: Adobe Illustrator 19.0.0, SVG Export Plug-In . SVG Version: 6.00 Build 0)  -->
<svg version="1.1" id="Layer_1" xmlns="http://www.w3.org/2000/svg" xmlns:xlink="http://www.w3.org/1999/xlink" x="0px" y="0px"
	 viewBox="0 0 512 512" style="enable-background:new 0 0 512 512;" xml:space="preserve">
<g transform="translate(1 1)">
	<g>
		<path style="fill:#FFDD09;" d="M259.693,237.933c-5.12,0-8.533-3.413-8.533-8.533V7.533c0-5.12,3.413-8.533,8.533-8.533
			c5.12,0,8.533,3.413,8.533,8.533V229.4C268.227,234.52,263.96,237.933,259.693,237.933z"/>
		<path style="fill:#FFDD09;" d="M259.693,58.733c-1.707,0-4.267-0.853-5.973-1.707l-25.6-25.6c-3.413-3.413-3.413-8.533,0-11.947
			s8.533-3.413,11.947,0l19.627,19.627L279.32,19.48c3.413-3.413,8.533-3.413,11.947,0s3.413,8.533,0,11.947l-25.6,25.6
			C263.96,57.88,262.253,58.733,259.693,58.733z"/>
		<path style="fill:#FFDD09;" d="M259.693,144.067c-1.707,0-4.267-0.853-5.973-1.707l-42.667-42.667
			c-3.413-3.413-3.413-8.533,0-11.947s8.533-3.413,11.947,0l36.693,36.693l36.693-36.693c3.413-3.413,8.533-3.413,11.947,0
			c3.413,3.413,3.413,8.533,0,11.947l-42.667,42.667C263.96,143.213,262.253,144.067,259.693,144.067z"/>
		<path style="fill:#FFDD09;" d="M276.76,84.333h-34.133c-5.12,0-8.533-3.413-8.533-8.533s3.413-8.533,8.533-8.533h34.133
			c5.12,0,8.533,3.413,8.533,8.533C285.293,80.92,281.027,84.333,276.76,84.333z"/>
		<path style="fill:#FFDD09;" d="M259.693,511c-5.12,0-8.533-3.413-8.533-8.533V280.6c0-5.12,3.413-8.533,8.533-8.533
			c5.12,0,8.533,3.413,8.533,8.533v221.867C268.227,507.587,263.96,511,259.693,511z"/>
		<path style="fill:#FFDD09;" d="M234.093,493.933c-2.56,0-4.267-0.853-5.973-2.56c-3.413-3.413-3.413-8.533,0-11.947l25.6-25.6
			c3.413-3.413,8.533-3.413,11.947,0l25.6,25.6c3.413,3.413,3.413,8.533,0,11.947c-3.413,3.413-8.533,3.413-11.947,0l-19.627-19.627
			l-19.627,19.627C238.36,493.08,235.8,493.933,234.093,493.933z"/>
		<path style="fill:#FFDD09;" d="M217.027,425.667c-2.56,0-4.267-0.853-5.973-2.56c-3.413-3.413-3.413-8.533,0-11.947l42.667-42.667
			c3.413-3.413,8.533-3.413,11.947,0l42.667,42.667c3.413,3.413,3.413,8.533,0,11.947c-3.413,3.413-8.533,3.413-11.947,0
			l-36.693-36.693L223,423.107C221.293,424.813,218.733,425.667,217.027,425.667z"/>
		<path style="fill:#FFDD09;" d="M276.76,442.733h-34.133c-5.12,0-8.533-3.413-8.533-8.533c0-5.12,3.413-8.533,8.533-8.533h34.133
			c5.12,0,8.533,3.413,8.533,8.533C285.293,439.32,281.027,442.733,276.76,442.733z"/>
		<path style="fill:#FFDD09;" d="M281.88,250.733c-2.56,0-5.973-1.707-7.68-4.267c-2.56-4.267-0.853-9.387,2.56-11.947
			l190.293-114.347c4.267-2.56,9.387-0.853,11.947,2.56s0.853,9.387-2.56,11.947L286.147,249.027
			C284.44,249.88,282.733,250.733,281.88,250.733z"/>
		<path style="fill:#FFDD09;" d="M470.467,167.107c-0.853,0-1.707,0-1.707,0l-34.987-8.533c-4.267-0.853-6.827-5.12-5.973-10.24
			l8.533-35.84c0.853-4.267,5.973-7.68,10.24-5.973c4.267,0.853,7.68,5.973,5.973,10.24l-6.827,26.453l26.453,6.827
			c4.267,0.853,7.68,5.973,5.973,10.24C477.293,164.547,473.88,167.107,470.467,167.107z"/>
		<path style="fill:#FFDD09;" d="M420.973,216.6c-0.853,0-1.707,0-1.707,0l-58.88-14.507c-2.56-0.853-4.267-1.707-5.12-4.267
			c-0.853-1.707-1.707-4.267-0.853-6.827l14.507-58.027c0.853-4.267,5.973-7.68,10.24-5.973c4.267,0.853,7.68,5.973,5.973,10.24
			l-12.8,50.347l50.347,12.8c4.267,0.853,7.68,5.973,5.973,10.24C427.8,214.04,424.387,216.6,420.973,216.6z"/>
		<path style="fill:#FFDD09;" d="M421.827,185.88c-2.56,0-5.973-1.707-7.68-4.267L397.08,152.6c-2.56-4.267-0.853-9.387,2.56-11.947
			c4.267-2.56,9.387-0.853,11.947,2.56l17.92,29.013c2.56,4.267,0.853,9.387-2.56,11.947
			C425.24,185.88,423.533,185.88,421.827,185.88z"/>
		<path style="fill:#FFDD09;" d="M47.213,390.68c-2.56,0-5.973-1.707-7.68-4.267c-2.56-4.267-0.853-9.387,2.56-11.947
			L233.24,260.973c4.267-2.56,9.387-0.853,11.947,2.56c2.56,4.267,0.853,9.387-2.56,11.947L51.48,389.827
			C50.627,390.68,48.92,390.68,47.213,390.68z"/>
		<path style="fill:#FFDD09;" d="M75.373,404.333c-0.853,0-1.707,0-1.707,0c-4.267-0.853-7.68-5.973-5.973-10.24l6.827-26.453
			l-26.453-6.827c-4.267-0.853-7.68-5.973-5.973-10.24c0.853-4.267,5.973-7.68,10.24-5.973l34.987,8.533
			c4.267,0.853,7.68,5.973,5.973,10.24L84.76,398.36C82.2,401.773,78.787,404.333,75.373,404.333z"/>
		<path style="fill:#FFDD09;" d="M142.787,383.853c-0.853,0-1.707,0-1.707,0c-4.267-0.853-7.68-5.973-5.973-10.24l12.8-50.347
			l-51.2-12.8c-4.267-0.853-7.68-5.973-5.973-10.24c0.853-4.267,5.973-7.68,10.24-5.973l58.88,14.507
			c4.267,0.853,7.68,5.973,5.973,10.24l-14.507,58.88C149.613,381.293,146.2,383.853,142.787,383.853z"/>
		<path style="fill:#FFDD09;" d="M114.627,370.2c-2.56,0-5.973-1.707-7.68-4.267l-17.92-29.013c-2.56-4.267-0.853-9.387,2.56-11.947
			c3.413-2.56,9.387-0.853,11.947,2.56l18.773,29.867c2.56,4.267,0.853,9.387-2.56,11.947C118.04,370.2,116.333,370.2,114.627,370.2
			z"/>
		<path style="fill:#FFDD09;" d="M473.88,387.267c-1.707,0-2.56,0-4.267-0.853l-192-110.933c-4.267-2.56-5.12-7.68-3.413-11.947
			c2.56-4.267,7.68-5.12,11.947-3.413l192,110.933c4.267,2.56,5.12,7.68,3.413,11.947
			C479.853,386.413,476.44,387.267,473.88,387.267z"/>
		<path style="fill:#FFDD09;" d="M446.573,400.92c-3.413,0-6.827-2.56-8.533-5.973l-9.387-34.987c-0.853-2.56,0-4.267,0.853-6.827
			c0.853-1.707,3.413-3.413,5.12-4.267l34.987-9.387c4.267-0.853,9.387,1.707,10.24,5.973s-1.707,9.387-5.973,10.24l-26.453,6.827
			l6.827,26.453c0.853,4.267-1.707,9.387-5.973,10.24C447.427,400.92,446.573,400.92,446.573,400.92z"/>
		<path style="fill:#FFDD09;" d="M378.307,382.147c-3.413,0-6.827-2.56-8.533-5.973l-15.36-58.027c-0.853-2.56,0-4.267,0.853-6.827
			c0.853-1.707,3.413-3.413,5.12-4.267l58.027-15.36c4.267-0.853,9.387,1.707,10.24,5.973c0.853,4.267-1.707,9.387-5.973,10.24
			l-50.347,13.653l13.653,50.347c0.853,4.267-1.707,9.387-5.973,10.24C380.013,381.293,379.16,382.147,378.307,382.147z"/>
		<path style="fill:#FFDD09;" d="M406.467,368.493c-1.707,0-2.56,0-4.267-0.853c-4.267-2.56-5.12-7.68-3.413-11.947l17.067-29.867
			c2.56-4.267,7.68-5.12,11.947-3.413c4.267,2.56,5.12,7.68,3.413,11.947l-17.067,29.867
			C411.587,366.787,409.027,368.493,406.467,368.493z"/>
		<path style="fill:#FFDD09;" d="M237.507,250.733c-1.707,0-2.56,0-4.267-0.853l-192-110.933c-4.267-2.56-5.12-8.533-3.413-11.947
			c2.56-4.267,7.68-5.12,11.947-3.413l192,110.933c4.267,2.56,5.12,7.68,3.413,11.947
			C243.48,249.027,240.067,250.733,237.507,250.733z"/>
		<path style="fill:#FFDD09;" d="M47.213,170.52c-3.413,0-6.827-2.56-8.533-5.973c-0.853-4.267,1.707-9.387,5.973-10.24
			l26.453-6.827l-6.827-26.453c-0.853-5.973,1.707-11.093,6.827-11.947c4.267-0.853,9.387,1.707,10.24,5.973l9.387,34.987
			c0.853,2.56,0,4.267-0.853,6.827c-0.853,1.707-3.413,3.413-5.12,4.267l-34.987,8.533C48.92,170.52,48.067,170.52,47.213,170.52z"
			/>
		<path style="fill:#FFDD09;" d="M97.56,219.16c-3.413,0-6.827-2.56-8.533-5.973c-0.853-5.12,2.56-9.387,6.827-11.093L146.2,188.44
			l-13.653-50.347c-0.853-4.267,1.707-9.387,5.973-10.24s9.387,1.707,10.24,5.973l15.36,58.027c0.853,2.56,0,4.267-0.853,6.827
			c-0.853,1.707-3.413,3.413-5.12,4.267l-58.027,15.36C99.267,219.16,98.413,219.16,97.56,219.16z"/>
		<path style="fill:#FFDD09;" d="M95.853,188.44c-1.707,0-2.56,0-4.267-0.853c-4.267-2.56-5.12-7.68-3.413-11.947l17.067-29.867
			c2.56-4.267,7.68-5.12,11.947-3.413c4.267,2.56,5.12,7.68,3.413,11.947l-17.067,29.867
			C101.827,186.733,99.267,188.44,95.853,188.44z"/>
		<polygon style="fill:#FFDD09;" points="310.04,152.6 303.213,224.28 369.773,255 303.213,285.72 310.04,357.4 250.307,314.733 
			190.573,357.4 197.4,287.427 130.84,255 197.4,224.28 190.573,152.6 250.307,195.267 		"/>
	</g>
	<path style="fill:#1CD759;" d="M275.907,255c0-14.507-11.093-25.6-25.6-25.6c-14.507,0-25.6,11.093-25.6,25.6
		c0,14.507,11.093,25.6,25.6,25.6C264.813,280.6,275.907,269.507,275.907,255"/>
	<path d="M190.573,365.933c-1.707,0-2.56,0-4.267-0.853c-2.56-1.707-4.267-5.12-4.267-8.533l6.827-64.853l-61.44-29.013
		c-3.413-1.707-5.12-4.267-5.12-7.68c0-3.413,1.707-5.973,5.12-7.68l60.587-28.16l-5.973-65.707c0-3.413,1.707-6.827,4.267-8.533
		s6.827-1.707,9.387,0.853l54.613,39.253l54.613-39.253c2.56-1.707,5.973-1.707,9.387-0.853c2.56,1.707,4.267,5.12,4.267,8.533
		L312.6,219.16l60.587,28.16c3.413,1.707,5.12,4.267,5.12,7.68s-1.707,5.973-5.12,7.68L312.6,290.84l5.973,65.707
		c0,3.413-1.707,6.827-4.267,8.533c-2.56,1.707-6.827,1.707-9.387-0.853l-54.613-39.253l-54.613,39.253
		C193.987,365.08,192.28,365.933,190.573,365.933z M250.307,306.2c1.707,0,3.413,0.853,5.12,1.707L299.8,339.48l-5.12-53.76
		c0-3.413,1.707-6.827,5.12-8.533l49.493-23.04l-49.493-23.04c-3.413-1.707-5.12-5.12-5.12-8.533l5.12-52.907l-44.373,31.573
		c-2.56,1.707-6.827,1.707-10.24,0l-44.373-31.573l5.12,53.76c0,3.413-1.707,6.827-5.12,8.533L150.467,255l50.347,23.893
		c3.413,1.707,5.12,5.12,5.12,8.533l-5.12,52.053l44.373-31.573C246.893,307.053,248.6,306.2,250.307,306.2z"/>
	<path d="M250.307,289.133c-18.773,0-34.133-15.36-34.133-34.133s15.36-34.133,34.133-34.133S284.44,236.227,284.44,255
		S269.08,289.133,250.307,289.133z M250.307,237.933c-9.387,0-17.067,7.68-17.067,17.067s7.68,17.067,17.067,17.067
		c9.387,0,17.067-7.68,17.067-17.067S259.693,237.933,250.307,237.933z"/>
	<path d="M250.307,237.933c-5.12,0-8.533-3.413-8.533-8.533V7.533c0-5.12,3.413-8.533,8.533-8.533c5.12,0,8.533,3.413,8.533,8.533
		V229.4C258.84,234.52,255.427,237.933,250.307,237.933z"/>
	<path d="M250.307,58.733c-2.56,0-4.267-0.853-5.973-2.56l-25.6-25.6c-3.413-3.413-3.413-8.533,0-11.947s8.533-3.413,11.947,0
		l19.627,19.627l19.627-19.627c3.413-3.413,8.533-3.413,11.947,0s3.413,8.533,0,11.947l-25.6,25.6
		C254.573,57.88,252.867,58.733,250.307,58.733z"/>
	<path d="M250.307,144.067c-2.56,0-4.267-0.853-5.973-2.56L201.667,98.84c-3.413-3.413-3.413-8.533,0-11.947s8.533-3.413,11.947,0
		l36.693,36.693L287,86.893c3.413-3.413,8.533-3.413,11.947,0s3.413,8.533,0,11.947l-42.667,42.667
		C254.573,143.213,252.867,144.067,250.307,144.067z"/>
	<path d="M267.373,84.333H233.24c-5.12,0-8.533-3.413-8.533-8.533s3.413-8.533,8.533-8.533h34.133c5.12,0,8.533,3.413,8.533,8.533
		C275.907,80.92,272.493,84.333,267.373,84.333z"/>
	<path d="M250.307,511c-5.12,0-8.533-3.413-8.533-8.533V280.6c0-5.12,3.413-8.533,8.533-8.533c5.12,0,8.533,3.413,8.533,8.533
		v221.867C258.84,507.587,255.427,511,250.307,511z"/>
	<path d="M275.907,493.933c-2.56,0-4.267-0.853-5.973-2.56l-19.627-19.627l-19.627,19.627c-3.413,3.413-8.533,3.413-11.947,0
		c-3.413-3.413-3.413-8.533,0-11.947l25.6-25.6c3.413-3.413,8.533-3.413,11.947,0l25.6,25.6c3.413,3.413,3.413,8.533,0,11.947
		C280.173,493.08,278.467,493.933,275.907,493.933z"/>
	<path d="M292.973,425.667c-2.56,0-4.267-0.853-5.973-2.56l-36.693-36.693l-36.693,36.693c-3.413,3.413-8.533,3.413-11.947,0
		c-3.413-3.413-3.413-8.533,0-11.947l42.667-42.667c3.413-3.413,8.533-3.413,11.947,0l42.667,42.667
		c3.413,3.413,3.413,8.533,0,11.947C297.24,424.813,295.533,425.667,292.973,425.667z"/>
	<path d="M267.373,442.733H233.24c-5.12,0-8.533-3.413-8.533-8.533c0-5.12,3.413-8.533,8.533-8.533h34.133
		c5.12,0,8.533,3.413,8.533,8.533C275.907,439.32,272.493,442.733,267.373,442.733z"/>
	<path d="M272.493,250.733c-2.56,0-5.973-1.707-7.68-4.267c-2.56-4.267-0.853-9.387,2.56-11.947l190.293-114.347
		c4.267-2.56,9.387-0.853,11.947,2.56s0.853,9.387-2.56,11.947L276.76,249.027C275.053,249.88,273.347,250.733,272.493,250.733z"/>
	<path d="M461.08,167.107c-0.853,0-1.707,0-1.707,0l-34.987-8.533c-4.267-0.853-6.827-5.12-5.973-10.24l8.533-35.84
		c0.853-4.267,5.973-7.68,10.24-5.973c4.267,0.853,7.68,5.973,5.973,10.24l-6.827,26.453l26.453,6.827
		c4.267,0.853,7.68,5.973,5.973,10.24C468.76,164.547,464.493,167.107,461.08,167.107z"/>
	<path d="M411.587,216.6c-0.853,0-1.707,0-1.707,0L351,202.093c-4.267-0.853-7.68-5.973-5.973-10.24l14.507-58.88
		c0.853-4.267,5.973-7.68,10.24-5.973c4.267,0.853,7.68,5.973,5.973,10.24l-12.8,50.347l50.347,12.8
		c4.267,0.853,7.68,5.973,5.973,10.24C418.413,214.04,415,216.6,411.587,216.6z"/>
	<path d="M412.44,185.88c-2.56,0-5.973-1.707-7.68-4.267L387.693,152.6c-2.56-4.267-0.853-9.387,2.56-11.947
		c4.267-2.56,9.387-0.853,11.947,2.56l17.92,29.013c2.56,4.267,0.853,9.387-2.56,11.947
		C415.853,185.88,414.147,185.88,412.44,185.88z"/>
	<path d="M37.827,390.68c-2.56,0-5.973-1.707-7.68-4.267c-1.707-3.413-0.853-9.387,3.413-11.093l190.293-114.347
		c4.267-2.56,9.387-0.853,11.947,2.56c2.56,4.267,0.853,9.387-2.56,11.947L42.093,389.827C41.24,390.68,39.533,390.68,37.827,390.68
		z"/>
	<path d="M65.987,404.333c-0.853,0-1.707,0-1.707,0c-4.267-0.853-7.68-5.973-5.973-10.24l6.827-26.453l-26.453-6.827
		c-4.267-0.853-7.68-5.973-5.973-10.24c0.853-4.267,5.973-7.68,10.24-5.973l34.987,8.533c2.56,0.853,4.267,1.707,5.12,4.267
		c0.853,1.707,1.707,4.267,0.853,6.827l-8.533,34.987C72.813,401.773,69.4,404.333,65.987,404.333z"/>
	<path d="M133.4,383.853c-0.853,0-1.707,0-1.707,0c-4.267-0.853-7.68-5.973-5.973-10.24l12.8-50.347l-50.347-12.8
		c-4.267-0.853-7.68-5.973-5.973-10.24c0.853-4.267,5.973-7.68,10.24-5.973l58.88,14.507c4.267,0.853,7.68,5.973,5.973,10.24
		l-14.507,58.88C140.227,381.293,136.813,383.853,133.4,383.853z"/>
	<path d="M105.24,370.2c-2.56,0-5.973-1.707-7.68-4.267L79.64,336.92c-2.56-4.267-0.853-9.387,2.56-11.947
		c4.267-2.56,9.387-0.853,11.947,2.56L112.92,357.4c2.56,4.267,0.853,9.387-2.56,11.947C108.653,370.2,106.947,370.2,105.24,370.2z"
		/>
	<path d="M464.493,387.267c-1.707,0-2.56,0-4.267-0.853l-192-110.933c-4.267-2.56-5.12-7.68-3.413-11.947
		c2.56-4.267,7.68-5.12,11.947-3.413l192,110.933c4.267,2.56,5.12,7.68,3.413,11.947
		C470.467,386.413,467.053,387.267,464.493,387.267z"/>
	<path d="M437.187,400.92c-3.413,0-6.827-2.56-8.533-5.973l-9.387-34.987c-0.853-2.56,0-5.12,0.853-6.827
		c0.853-1.707,3.413-3.413,5.973-4.267l34.133-9.387c4.267-0.853,9.387,1.707,10.24,5.973c0.853,4.267-1.707,9.387-5.973,10.24
		l-26.453,7.68l6.827,26.453c0.853,4.267-1.707,9.387-5.973,10.24C438.04,400.92,437.187,400.92,437.187,400.92z"/>
	<path d="M368.92,382.147c-3.413,0-6.827-2.56-8.533-5.973l-15.36-58.027c-0.853-2.56,0-4.267,0.853-6.827
		c0.853-1.707,3.413-3.413,5.12-4.267l58.027-15.36c4.267-0.853,9.387,1.707,10.24,5.973c0.853,4.267-1.707,9.387-5.973,10.24
		l-50.347,13.653l13.653,50.347c0.853,4.267-1.707,9.387-5.973,10.24C370.627,381.293,369.773,382.147,368.92,382.147z"/>
	<path d="M397.08,368.493c-1.707,0-2.56,0-4.267-0.853c-4.267-2.56-5.12-7.68-3.413-11.947l17.067-29.867
		c2.56-4.267,7.68-5.12,11.947-3.413c4.267,2.56,5.12,7.68,3.413,11.947l-17.067,29.867
		C402.2,366.787,399.64,368.493,397.08,368.493z"/>
	<path d="M228.12,250.733c-1.707,0-2.56,0-4.267-0.853l-192-110.933c-4.267-2.56-5.12-8.533-3.413-11.947
		c2.56-4.267,7.68-5.12,11.947-3.413l192,110.933c4.267,2.56,5.12,7.68,3.413,11.947C234.093,249.027,230.68,250.733,228.12,250.733
		z"/>
	<path d="M37.827,170.52c-3.413,0-6.827-2.56-8.533-5.973c-0.853-4.267,1.707-9.387,5.973-10.24l27.307-7.68l-6.827-26.453
		c-1.707-5.12,1.707-10.24,5.973-11.093c4.267-0.853,9.387,1.707,10.24,5.973l9.387,34.987c0.853,2.56,0,4.267-0.853,6.827
		c-0.853,1.707-3.413,3.413-5.12,4.267l-34.987,8.533C39.533,170.52,38.68,170.52,37.827,170.52z"/>
	<path d="M89.027,219.16c-3.413,0-6.827-2.56-8.533-5.973c-0.853-4.267,1.707-9.387,5.973-10.24l50.347-13.653l-13.653-50.347
		c-0.853-4.267,1.707-9.387,5.973-10.24c4.267-0.853,9.387,1.707,10.24,5.973l15.36,58.027c0.853,2.56,0,4.267-0.853,6.827
		c-0.853,1.707-3.413,3.413-5.12,4.267l-58.027,15.36C89.88,219.16,89.027,219.16,89.027,219.16z"/>
	<path d="M86.467,188.44c-1.707,0-2.56,0-4.267-0.853c-4.267-2.56-5.12-7.68-3.413-11.947l17.067-29.867
		c2.56-4.267,7.68-5.12,11.947-3.413c4.267,2.56,5.12,7.68,3.413,11.947l-17.067,29.867C92.44,186.733,89.88,188.44,86.467,188.44z"
		/>
</g>
<g>
</g>
<g>
</g>
<g>
</g>
<g>
</g>
<g>
</g>
<g>
</g>
<g>
</g>
<g>
</g>
<g>
</g>
<g>
</g>
<g>
</g>
<g>
</g>
<g>
</g>
<g>
</g>
<g>
</g>
</svg>
