<svg height="511pt" viewBox="-20 0 511 511.74602" width="511pt" xmlns="http://www.w3.org/2000/svg"><path d="m463.285156 255.984375c0 122.53125-99.332031 221.867187-221.867187 221.867187-122.53125 0-221.867188-99.335937-221.867188-221.867187 0-122.535156 99.335938-221.867187 221.867188-221.867187 122.535156 0 221.867187 99.332031 221.867187 221.867187zm0 0" fill="#2fa8cc"/><g fill="#285680"><path d="m241.417969 486.382812c-127.246094 0-230.398438-103.152343-230.398438-230.398437s103.152344-230.402344 230.398438-230.402344c127.246093 0 230.402343 103.15625 230.402343 230.402344-.144531 127.1875-103.214843 230.257813-230.402343 230.398437zm0-443.734374c-117.820313 0-213.332031 95.515624-213.332031 213.335937s95.511718 213.332031 213.332031 213.332031c117.820312 0 213.332031-95.511718 213.332031-213.332031-.128906-117.765625-95.566406-213.203125-213.332031-213.335937zm0 0"/><path d="m463.285156 264.515625h-443.734375c-4.710937 0-8.53125-3.820313-8.53125-8.53125 0-4.714844 3.820313-8.535156 8.53125-8.535156h443.734375c4.710938 0 8.535156 3.820312 8.535156 8.535156 0 4.710937-3.824218 8.53125-8.535156 8.53125zm0 0"/><path d="m241.417969 486.382812c-4.710938 0-8.53125-3.820312-8.53125-8.53125v-443.734374c0-4.714844 3.820312-8.535157 8.53125-8.535157 4.714843 0 8.535156 3.820313 8.535156 8.535157v443.734374c0 4.710938-3.820313 8.53125-8.535156 8.53125zm0 0"/><path d="m241.417969 486.382812c-66.996094 0-119.464844-101.207031-119.464844-230.398437 0-129.195313 52.46875-230.402344 119.464844-230.402344 66.996093 0 119.46875 101.207031 119.46875 230.402344 0 129.191406-52.472657 230.398437-119.46875 230.398437zm0-443.734374c-55.464844 0-102.398438 97.699218-102.398438 213.335937 0 115.632813 46.933594 213.332031 102.398438 213.332031 55.46875 0 102.402343-97.699218 102.402343-213.332031 0-115.636719-46.894531-213.335937-102.402343-213.335937zm0 0"/><path d="m241.417969 162.117188c-70.828125 0-136.378907-8.945313-184.492188-25.199219-2.949219-.929688-5.164062-3.378907-5.792969-6.40625-.628906-3.03125.429688-6.160157 2.769532-8.1875 2.335937-2.023438 5.585937-2.625 8.496094-1.570313 45.710937 15.4375 110.957031 24.296875 179.019531 24.296875s133.308593-8.859375 179.019531-24.296875c2.910156-1.054687 6.160156-.453125 8.496094 1.570313 2.339844 2.027343 3.398437 5.15625 2.769531 8.1875-.625 3.027343-2.84375 5.476562-5.792969 6.40625-48.113281 16.253906-113.621094 25.199219-184.492187 25.199219zm0 0"/><path d="m423.179688 391.664062c-.933594 0-1.859376-.152343-2.742188-.453124-45.710938-15.4375-110.957031-24.292969-179.019531-24.292969s-133.308594 8.855469-179.019531 24.292969c-2.910157 1.054687-6.160157.453124-8.496094-1.570313-2.339844-2.023437-3.398438-5.15625-2.769532-8.183594.628907-3.027343 2.84375-5.480469 5.792969-6.410156 48.113281-16.253906 113.664063-25.195313 184.492188-25.195313s136.378906 8.941407 184.492187 25.195313c3.953125 1.34375 6.355469 5.347656 5.679688 9.464844-.679688 4.121093-4.238282 7.144531-8.410156 7.152343zm0 0"/></g><path d="m62.21875 230.382812c-1.992188 0-3.921875-.699218-5.453125-1.972656 0 0-2.628906-2.191406-6.757813-6.296875-2.222656-2.136719-3.117187-5.308593-2.34375-8.292969.773438-2.984374 3.097657-5.320312 6.082032-6.105468 2.980468-.789063 6.15625.09375 8.300781 2.308594 3.347656 3.328124 5.523437 5.171874 5.667969 5.289062 2.75 2.308594 3.761718 6.089844 2.53125 9.460938-1.230469 3.371093-4.4375 5.613281-8.027344 5.609374zm0 0" fill="#f29c1f"/><path d="m33.9375 197.65625c-2.859375.003906-5.53125-1.429688-7.117188-3.8125-3.398437-5.101562-6.511718-10.382812-9.324218-15.828125-2.054688-4.171875-.394532-9.222656 3.742187-11.355469 4.132813-2.132812 9.210938-.5625 11.421875 3.527344 2.53125 4.890625 5.328125 9.636719 8.378906 14.21875 1.738282 2.617188 1.894532 5.976562.410157 8.746094-1.480469 2.769531-4.367188 4.5-7.511719 4.503906zm-20.65625-47.785156c-4.054688-.003906-7.546875-2.855469-8.355469-6.828125-1.273437-6.144531-2.054687-12.382813-2.328125-18.652344-.203125-4.707031 3.449219-8.6875 8.15625-8.890625 4.6875-.148438 8.632813 3.472656 8.890625 8.15625.234375 5.355469.902344 10.683594 1.996094 15.933594.460937 2.214844.019531 4.523437-1.222656 6.414062-1.246094 1.894532-3.1875 3.214844-5.40625 3.671875-.566407.132813-1.148438.207031-1.730469.222657zm.902344-51.960938c-.625.003906-1.25-.0625-1.859375-.195312-4.597657-1.023438-7.5-5.582032-6.476563-10.179688 1.351563-6.101562 3.164063-12.089844 5.417969-17.921875 1.109375-2.839843 3.652344-4.875 6.667969-5.332031 3.015625-.460938 6.046875.722656 7.953125 3.105469 1.90625 2.382812 2.394531 5.597656 1.285156 8.441406-1.953125 5.023437-3.511719 10.195313-4.660156 15.460937-.878907 3.890626-4.339844 6.652344-8.328125 6.648438zm23.125-46.257812c-3.363282-.011719-6.40625-1.996094-7.769532-5.070313-1.367187-3.070312-.800781-6.660156 1.449219-9.164062 4.261719-4.699219 8.964844-8.984375 14.035157-12.800781 2.4375-1.828126 5.667968-2.214844 8.472656-1.019532 2.804687 1.199219 4.753906 3.800782 5.121094 6.828125.363281 3.027344-.914063 6.015625-3.351563 7.847657-4.203125 3.160156-8.097656 6.707031-11.632813 10.597656-1.617187 1.785156-3.914062 2.804687-6.324218 2.808594zm164.515625-26.820313c-.722657 0-1.445313-.097656-2.140625-.28125-5.121094-1.316406-10.582032-2.476562-16.359375-3.464843-4.648438-.792969-7.777344-5.203126-6.984375-9.851563.789062-4.648437 5.203125-7.777344 9.851562-6.984375 6.253906 1.066406 12.226563 2.335938 17.757813 3.769531 4.171875 1.066407 6.898437 5.070313 6.355469 9.339844-.539063 4.273437-4.175782 7.472656-8.480469 7.464844zm-120.765625-.683593c-4.203125.007812-7.789063-3.046876-8.445313-7.203126-.652343-4.152343 1.816407-8.164062 5.820313-9.453124 5.867187-1.894532 11.851562-3.410157 17.917968-4.53125 3.042969-.667969 6.207032.371093 8.253907 2.714843 2.050781 2.34375 2.664062 5.617188 1.597656 8.542969s-3.640625 5.035156-6.71875 5.511719c-5.355469.996093-10.636719 2.332031-15.820313 4-.84375.273437-1.71875.414062-2.605468.417969zm69.054687-6.621094h-.4375c-5.390625-.261719-11.082031-.414063-17.066406-.460938-4.710937-.015625-8.519531-3.847656-8.507813-8.558594.015626-4.710937 3.847657-8.523437 8.558594-8.507812h.050782c6.257812.0351562 12.199218.195312 17.820312.488281 4.710938.113281 8.4375 4.027344 8.324219 8.742188-.117188 4.710937-4.03125 8.4375-8.742188 8.324219zm0 0" fill="#f29c1f"/><path d="m241.417969 42.648438c-2.257813.007812-4.429688-.890626-6.023438-2.492188-1.644531-1.382812-3.40625-2.621094-5.265625-3.703125-2.703125-1.527344-4.363281-4.40625-4.332031-7.515625.03125-3.105469 1.75-5.949219 4.488281-7.421875 2.734375-1.476563 6.054688-1.34375 8.667969.339844 3.070313 1.742187 5.933594 3.828125 8.53125 6.21875 2.453125 2.445312 3.183594 6.125 1.851563 9.320312-1.328126 3.195313-4.457032 5.273438-7.917969 5.253907zm0 0" fill="#f29c1f"/><path d="m185.449219 335.148438h-.589844c-5.785156-.394532-11.699219-1.027344-17.578125-1.851563-4.667969-.664063-7.914062-4.984375-7.253906-9.652344.664062-4.667969 4.984375-7.917969 9.652344-7.253906 5.46875.777344 10.972656 1.355469 16.347656 1.707031 4.714844.160156 8.40625 4.109375 8.246094 8.824219-.160157 4.710937-4.113282 8.402344-8.824219 8.242187zm34.0625-.402344c-4.539063-.023438-8.265625-3.59375-8.480469-8.128906-.21875-4.53125 3.15625-8.441407 7.671875-8.894532 5.433594-.523437 10.84375-1.28125 16.109375-2.269531 2.996094-.5625 6.066406.515625 8.050781 2.828125 1.988281 2.316406 2.585938 5.511719 1.578125 8.390625-1.011718 2.875-3.480468 4.992187-6.480468 5.554687-5.765626 1.085938-11.699219 1.914063-17.628907 2.484376-.246093.027343-.554687.035156-.820312.035156zm49.605469-11.714844c-4.113282.007812-7.648438-2.921875-8.40625-6.964844-.757813-4.042968 1.480468-8.050781 5.316406-9.53125 4.992187-1.9375 9.984375-4.15625 14.839844-6.597656 2.726562-1.371094 5.972656-1.1875 8.523437.488281 2.550781 1.671875 4.015625 4.578125 3.839844 7.625-.171875 3.042969-1.957031 5.765625-4.683594 7.136719-5.332031 2.679688-10.835937 5.121094-16.324219 7.261719-.988281.386719-2.042968.582031-3.105468.582031zm44.554687-24.910156c-3.675781 0-6.9375-2.351563-8.097656-5.835938-1.160157-3.484375.039062-7.320312 2.976562-9.523437 4.265625-3.21875 8.53125-6.699219 12.671875-10.359375 2.285156-2.023438 5.476563-2.671875 8.371094-1.703125 2.898438.96875 5.054688 3.40625 5.664062 6.398437.609376 2.992188-.425781 6.082032-2.710937 8.101563-4.472656 3.96875-9.105469 7.75-13.765625 11.242187-1.472656 1.105469-3.269531 1.695313-5.109375 1.679688zm36.90625-35.3125c-3.3125 0-6.324219-1.914063-7.726563-4.914063-1.402343-2.996093-.945312-6.535156 1.171876-9.078125 3.480468-4.164062 6.828124-8.535156 10.113281-13.03125 2.839843-3.546875 7.957031-4.246094 11.644531-1.59375 3.6875 2.65625 4.648438 7.734375 2.1875 11.550782-3.464844 4.804687-7.109375 9.507812-10.820312 13.96875-1.621094 1.960937-4.03125 3.097656-6.570313 3.097656zm28.535156-42.496094c-2.992187-.003906-5.765625-1.574219-7.308593-4.140625-1.539063-2.566406-1.621094-5.75-.21875-8.394531 2.566406-4.738282 4.882812-9.605469 6.945312-14.582032 1.710938-4.394531 6.65625-6.570312 11.046875-4.859374 4.394531 1.707031 6.570313 6.652343 4.859375 11.046874-2.296875 5.601563-4.894531 11.074219-7.78125 16.398438-1.492188 2.773438-4.394531 4.5-7.542969 4.488281zm0 0" fill="#f0c419"/><path d="m330.675781 511.742188c-3.046875.066406-5.898437-1.5-7.480469-4.105469-1.582031-2.609375-1.652343-5.859375-.183593-8.535157 1.46875-2.671874 4.25-4.359374 7.296875-4.425781 5.378906-.234375 10.738281-.757812 16.0625-1.570312 4.660156-.707031 9.011718 2.5 9.71875 7.160156.707031 4.660156-2.5 9.011719-7.160156 9.71875-5.9375.890625-11.921876 1.457031-17.917969 1.707031zm-33.996093-2.0625c-.460938.003906-.925782-.03125-1.382813-.101563-5.828125-.957031-11.714844-2.203125-17.476563-3.714844-3.039062-.683593-5.464843-2.972656-6.328124-5.96875-.859376-2.996093-.015626-6.226562 2.199218-8.417969 2.214844-2.195312 5.453125-3.003906 8.441406-2.117187 5.253907 1.375 10.605469 2.511719 15.902344 3.363281 4.386719.714844 7.492188 4.675782 7.136719 9.105469-.355469 4.425781-4.046875 7.84375-8.492187 7.851563zm83.898437-8.363282c-4.117187.015625-7.664063-2.917968-8.417969-6.96875-.757812-4.050781 1.488282-8.0625 5.339844-9.535156 4.597656-1.773438 9.207031-3.8125 13.703125-6.066406l1.058594-.539063c4.199219-2.144531 9.34375-.476562 11.484375 3.722657 2.144531 4.199218.480468 9.339843-3.71875 11.484374l-1.195313.605469c-4.972656 2.484375-10.078125 4.746094-15.179687 6.714844-.980469.382813-2.019532.582031-3.074219.582031zm-132.675781-6.828125c-1.253906.003907-2.492188-.273437-3.625-.808593-5.566406-2.558594-10.953125-5.484376-16.128906-8.765626-3.921876-2.613281-4.984376-7.910156-2.371094-11.835937 2.613281-3.921875 7.910156-4.984375 11.835937-2.371094 4.472657 2.8125 9.128907 5.324219 13.933594 7.527344 3.621094 1.699219 5.570313 5.6875 4.695313 9.589844-.871094 3.902343-4.339844 6.671875-8.339844 6.664062zm176.273437-19.445312c-3.511719 0-6.664062-2.152344-7.945312-5.421875-1.277344-3.269532-.425781-6.992188 2.152343-9.375 3.828126-3.535156 7.355469-7.382813 10.546876-11.503906 2.917968-3.59375 8.167968-4.210938 11.835937-1.382813 3.664063 2.824219 4.414063 8.054687 1.679687 11.792969-3.765624 4.894531-7.9375 9.464844-12.472656 13.652344-1.578125 1.460937-3.648437 2.269531-5.796875 2.273437zm26.933594-42.785157c-2.6875 0-5.214844-1.265624-6.828125-3.414062s-2.117188-4.933594-1.367188-7.511719c1.441407-4.953125 2.417969-10.035156 2.910157-15.171875.492187-4.667968 4.632812-8.085937 9.3125-7.679687 2.253906.214843 4.328125 1.320312 5.769531 3.066406 1.441406 1.75 2.128906 4 1.910156 6.253906-.597656 6.195313-1.769531 12.324219-3.507812 18.300781-1.046875 3.664063-4.394532 6.1875-8.199219 6.1875zm.492187-50.605468c-3.894531 0-7.292968-2.640625-8.257812-6.417969-1.292969-5.058594-3.003906-10.003906-5.121094-14.777344-1.230468-2.792969-.878906-6.027343.925782-8.488281 1.800781-2.460938 4.777343-3.773438 7.8125-3.441406 3.03125.328125 5.65625 2.25 6.886718 5.042968 2.484375 5.636719 4.5 11.46875 6.03125 17.433594.574219 2.199219.246094 4.53125-.910156 6.488282-1.152344 1.957031-3.039062 3.371093-5.242188 3.929687-.691406.179687-1.40625.269531-2.125.265625zm-24.257812-44.476563c-2.355469 0-4.601562-.972656-6.214844-2.6875-3.515625-3.753906-7.386718-7.160156-11.5625-10.171875-2.570312-1.738281-3.992187-4.738281-3.714844-7.832031.277344-3.089844 2.214844-5.789063 5.054688-7.042969 2.84375-1.25 6.140625-.863281 8.613281 1.019532 5.0625 3.652343 9.765625 7.78125 14.042969 12.328124 2.339844 2.480469 2.976562 6.113282 1.625 9.242188s-4.4375 5.152344-7.84375 5.144531zm0 0" fill="#ff5364"/><path d="m44.296875 483.097656c-4.46875.007813-8.1875-3.433594-8.527344-7.890625-.335937-4.460937 2.828125-8.421875 7.25-9.082031 4.789063-.839844 9.429688-2.375 13.773438-4.558594 4.179687-1.714844 8.972656.128906 10.929687 4.203125 1.957032 4.074219.394532 8.96875-3.558594 11.160157-5.859374 2.90625-12.113281 4.941406-18.558593 6.039062-.433594.078125-.871094.121094-1.308594.128906zm-28.953125-13.429687c-2.960938.003906-5.710938-1.527344-7.269531-4.046875-2-3.277344-3.683594-6.738282-5.035157-10.332032-.980468-2.582031-1.792968-5.226562-2.429687-7.910156-1.09375-4.585937 1.734375-9.191406 6.320313-10.285156 4.585937-1.09375 9.191406 1.738281 10.285156 6.324219.46875 1.972656 1.0625 3.914062 1.78125 5.8125.96875 2.574219 2.171875 5.058593 3.59375 7.414062 1.625 2.628907 1.703125 5.933594.199218 8.636719-1.503906 2.703125-4.351562 4.378906-7.445312 4.386719zm73.4375-10.863281c-3.597656.011718-6.816406-2.234376-8.046875-5.613282-1.230469-3.382812-.210937-7.171875 2.554687-9.476562 5.238282-4.410156 9.46875-8.445313 12.105469-11.09375 3.363281-3.324219 8.78125-3.296875 12.109375.0625s3.300782 8.78125-.058594 12.109375c-2.851562 2.832031-7.449218 7.21875-13.140624 12.003906-1.546876 1.300781-3.503907 2.011719-5.523438 2.007813zm-78.503906-38.597657c-2.664063.003907-5.175782-1.234375-6.792969-3.351562-1.617187-2.117188-2.15625-4.867188-1.453125-7.433594 1.640625-5.914063 3.738281-11.691406 6.273438-17.28125 1.183593-2.878906 3.839843-4.882813 6.933593-5.230469 3.09375-.351562 6.128907 1.011719 7.925781 3.554688 1.796876 2.539062 2.066407 5.859375.707032 8.65625-2.171875 4.78125-3.964844 9.726562-5.367188 14.789062-1.011718 3.714844-4.386718 6.296875-8.238281 6.296875zm23.039062-45.5c-3.191406-.003906-6.113281-1.789062-7.574218-4.621093-1.460938-2.835938-1.21875-6.25.628906-8.851563 3.277344-4.625 6.886718-9.386719 10.714844-14.046875 3.054687-3.367188 8.214843-3.746094 11.730468-.867188 3.515625 2.882813 4.15625 8.011719 1.457032 11.671876-3.59375 4.394531-6.964844 8.804687-10.019532 13.113281-1.605468 2.265625-4.210937 3.609375-6.988281 3.601562zm33.441406-38.800781c-3.464843 0-6.585937-2.097656-7.898437-5.308594-1.308594-3.207031-.550781-6.890625 1.925781-9.316406 7.628906-7.492188 12.800782-11.949219 13.046875-12.085938 2.328125-1.96875 5.53125-2.546874 8.402344-1.511718 2.871094 1.03125 4.972656 3.515625 5.511719 6.519531.542968 3-.558594 6.0625-2.890625 8.03125-.050781 0-4.972657 4.21875-12.097657 11.222656-1.613281 1.585938-3.789062 2.464844-6.050781 2.449219zm0 0" fill="#955ba5"/></svg>